<?xml version="1.0" standalone="no"?>
<!DOCTYPE svg PUBLIC "-//W3C//DTD SVG 20010904//EN"
 "http://www.w3.org/TR/2001/REC-SVG-20010904/DTD/svg10.dtd">
<svg version="1.0" xmlns="http://www.w3.org/2000/svg"
 width="180.000000pt" height="180.000000pt" viewBox="0 0 180.000000 180.000000"
 preserveAspectRatio="xMidYMid meet">
<metadata>
Created by potrace 1.11, written by Peter Selinger 2001-2013
</metadata>
<g transform="translate(0.000000,180.000000) scale(0.100000,-0.100000)"
fill="#000000" stroke="none">
<path d="M0 900 l0 -900 900 0 900 0 0 900 0 900 -900 0 -900 0 0 -900z m1128
427 c99 -38 177 -119 204 -211 7 -23 12 -77 12 -121 -1 -106 -29 -179 -94
-245 -74 -73 -133 -92 -302 -98 l-138 -4 0 -134 0 -135 -122 3 -123 3 -3 483
-2 484 262 -4 c213 -4 271 -7 306 -21z"/>
<path d="M812 998 l3 -133 40 -3 c22 -2 69 -1 105 3 54 6 69 12 97 40 30 30
33 39 33 92 0 105 -39 133 -185 133 l-96 0 3 -132z"/>
</g>
</svg>
